<?xml version="1.0" encoding="utf-8"?>
<!-- Generator: Adobe Illustrator 24.0.2, SVG Export Plug-In . SVG Version: 6.00 Build 0)  -->
<svg version="1.1" id="Layer_1" xmlns="http://www.w3.org/2000/svg" xmlns:xlink="http://www.w3.org/1999/xlink" x="0px" y="0px"
	 viewBox="0 0 841.9 595.3" style="enable-background:new 0 0 841.9 595.3;" xml:space="preserve">
<path d="M229.2,335.5c-1.1,0-2.2-0.1-3.3-0.4c-8.8-2.2-14.2-14.5-18.2-23.6l-0.5-1.1c-3.3-7.5-7.5-17.7-11-30.2
	c-6.4-23.1-14.1-63.2,6.9-72.9c3-1.4,6-2.1,8.9-2.1c12,0,20.3,11.4,25.3,18.2l0.5,0.7c4.2,5.7,41.3,58.2,41.3,58.2l0,13.1l11.7,15.7
	v-30.8l30.7-46.2h-12.6L285,272.8c0,0-25.6-37.6-28.8-41.9c-1.9-2.6-3.8-5.2-5.8-8c-3.9-5.6-8-11.3-12.7-16.4
	c-5.1-5.5-13.8-12-26.1-12c-0.9,0-1.9,0-2.8,0.1c-7.2,0.6-13.3,3.3-18.3,8.2c-4.6,4.5-8,10.7-9.9,18c-3.3,12.9-2.5,30,2.3,50.8
	c4,17.1,8.7,31.7,14.2,43.5c5,10.8,12.5,27.2,23.9,32.3c1.7,0.8,3.4,1.1,5.3,1.1c3.5,0,7.2-1.4,9.9-3.7c6.7-5.8,11.3-15.9,13.9-26.1
	c-0.9,1.5-2,3-3.1,4.5C244,327.2,237.9,335.5,229.2,335.5z M333.1,204.1c-5.4-6.4-12.9-9.6-22.2-9.6c-1.1,0-2.2,0-3.2,0.1
	c-9.3,0.7-15.6,4.8-22.3,9.3c-6.8,4.5-13.8,9.1-23.9,9.4c1,0.4,1.9,0.7,2.7,0.8c2.1,0.4,4.2,0.6,6.3,0.6c7.1,0,13.1-2.4,18.9-4.6
	l0.2-0.1c6.1-2.4,12.3-4.8,19.7-4.8c1,0,2,0,3,0.1c9.7,0.9,21.2,8,21.2,37.2c0,27.9-6.1,49.3-12.2,66.6c-0.3,0.7-0.6,1.6-0.9,2.7
	c-2.8,8.6-7.5,23-16,23.1h0c-5.8,0-10.6-6.5-13.7-10.9l-0.3-0.4c-12-16.6-60-84.8-60-84.8c-1.6-2.5-4.1-4.6-9.2-4.6
	c-5.5,0-8.9,2.9-8.9,7.9l0,59.2h10.6l0-51c0-1.2,0.7-1.7,1.2-1.7c0.2,0,0.5,0.2,1.3,1.4c0,0,50.3,72,54.1,77.2
	c4.6,6.4,11.5,16,19.3,19.9c1.9,0.9,4,1.4,6.2,1.4c3.7,0,7.6-1.4,10.1-3.7c8.2-7.2,12.9-22.1,17-35.3l0.4-1.3
	c4.8-15.1,8.3-30.6,10.2-45C346.2,236.9,342.7,215.3,333.1,204.1z"/>
<g>
	<g>
		<path d="M405.3,248.2h-6.5v-15.1H381v15.1h-6.5v-34.3h6.5V228h17.8v-14.1h6.5V248.2z"/>
		<path d="M420.1,213.9V228h16.3c1.6,0,5,0.2,6.7,3.3c0.9,1.7,1.3,4.4,1.3,6.8c0,4.8-1.3,6.8-1.6,7.2c-0.6,0.9-2.6,3-6.8,3h-18.2
			c-1.8,0-2.7-0.9-3.1-1.4c-0.9-1.1-1.1-2.5-1.1-3.8v-29.1H420.1z M420.1,240.9c0,0.3,0,1.2,0.3,1.6c0.4,0.5,1.2,0.5,1.9,0.5h10.4
			c0.5,0,2.7,0,3.8-0.9c1.2-1,1.2-2.8,1.2-4.3c0-1.5,0-3.1-1.4-4.1c-0.9-0.7-2.1-0.6-3.3-0.6h-12.9V240.9z"/>
		<path d="M462.5,228.1c0-3.8,1.2-8.4,3.9-11c3.8-3.6,9.6-3.6,13.7-3.6c4.2,0,9.8,0,13.7,3.6c3.3,3.1,3.9,8,3.9,13.9
			c0,4.6-0.2,10.4-3.9,13.9c-3.8,3.6-9.6,3.6-13.7,3.6s-9.9,0-13.7-3.6c-2.9-2.8-4-7.8-3.9-11.7h-4.3v14.9h-6.5v-34.3h6.5v14.2
			H462.5z M471.3,240.5c2.1,2.7,5.2,2.9,8.8,2.9c3.8,0,6.7-0.3,8.7-2.9c1.4-1.8,2.2-4.6,2.2-9.5c0-5.2-0.8-7.8-2.2-9.5
			c-2.3-2.8-5.7-2.9-8.7-2.9c-2.9,0-6.6,0.1-8.8,2.9c-1.3,1.7-2.2,4.4-2.2,9.5C469.1,236.1,470,238.8,471.3,240.5z"/>
		<path d="M504,232.5h17.5v5H504V232.5z"/>
		<path d="M555,248.2l0.2-26.1c0-0.5,0-1.1-0.5-1.1c-0.4,0-0.8,0.8-1.3,1.6l-14.1,22.8c-0.9,1.5-2,3.2-5.4,3.2c-4.9,0-5-3.9-5-5.9
			v-28.8h6.5l-0.1,25.6c0,0.8,0,1.6,0.6,1.6c0.4,0,0.6-0.6,0.9-1.1l13.8-22.6c1.9-3,3.4-3.8,5.7-3.8c5.1,0,5.2,4.5,5.2,6.2v28.5H555
			z M540.1,206.1c0.2,0.8,0.8,1.6,1.4,2.2c1.1,0.9,2.5,1,3.6,1c1.2,0,2.5-0.1,3.6-1c0.6-0.5,1.1-1.3,1.4-2.2h4.7
			c-0.5,1.7-1.7,3.9-3.3,5.1c-1.7,1.3-4.2,1.7-6.3,1.7c-2.5,0-4.8-0.6-6.3-1.7c-1.7-1.2-2.8-3.4-3.3-5.1H540.1z"/>
		<path d="M600.2,217.1c3.5,3.4,3.9,9.4,3.9,13.9c0,3.7-0.1,10.2-3.9,13.9c-3.7,3.6-9.8,3.6-13.7,3.6c-4.1,0-9.9,0-13.7-3.6
			c-4-3.8-4-10-4-13.9c0-4.7,0.2-10.4,4-13.9c3.8-3.6,9.5-3.6,13.7-3.6C590.5,213.5,596.4,213.5,600.2,217.1z M577.7,240.5
			c2,2.6,4.9,2.9,8.7,2.9c2.9,0,6.6-0.1,8.8-2.9c1.3-1.6,2.2-4.4,2.2-9.5c0-5.1-0.8-7.8-2.2-9.5c-2.2-2.8-5.9-2.9-8.8-2.9
			c-3,0-6.5,0.1-8.7,2.9c-1.4,1.7-2.2,4.3-2.2,9.5C575.5,235.9,576.3,238.7,577.7,240.5z"/>
		<path d="M611.4,248.2V219c0-1.3,0-2.6,1.2-3.8c1.1-1.1,2.7-1.3,3.9-1.3h16.3c1.8,0,4.7,0,6.8,2.1c2.4,2.3,2.6,6.1,2.6,9
			c0,2.8-0.3,7.2-3,9.4c-1.3,1-3.2,1.7-5.2,1.7h-16.1v12.2H611.4z M630.2,230.9c1.4,0,3.1,0,4.2-1.3c1-1.2,1.1-3.4,1.1-4.7
			c0-1.5-0.1-3.6-1.2-4.7c-1.1-1.1-2.9-1.2-4-1.2h-10.4c-0.4,0-1,0-1.5,0.4c-0.4,0.4-0.4,1-0.4,1.6v9.8H630.2z"/>
		<path d="M649.5,213.9h6.5v34.3h-6.5V213.9z M674.2,248.2L660.1,235c-2-1.9-2.4-3.5-2.4-4.4c0-0.7,0.2-2.2,1.9-3.9l13-12.8h8
			L665.7,228c-1.1,1.1-1.8,1.9-1.8,2.6c0,1.1,1.2,2.3,2.2,3.1l16.2,14.5H674.2z"/>
		<path d="M381.8,268.9c0.6-1.4,1.5-2.6,4-2.6c2.2,0,3.2,0.9,4,2.6l8.4,18.9h2.1v3.8h-29.1v-3.8h2.1L381.8,268.9z M378.2,287.8h15.2
			l-7-16.2c-0.1-0.2-0.3-0.8-0.6-0.8c-0.3,0-0.5,0.6-0.6,0.8L378.2,287.8z"/>
		<path d="M407.7,291.6c-1.1,0-2,0-2.9-0.8c-0.9-0.8-0.9-2-0.9-2.9v-17.7c0-1,0.3-2,0.9-2.6c0.8-0.9,2-1,3-1h16v3.8h-13.5
			c-0.4,0-0.9,0-1.3,0.4c-0.4,0.4-0.4,0.9-0.4,1.2v5h14.8v3.8h-14.8v5.9c0,0.4,0.1,0.8,0.4,1c0.3,0.3,0.9,0.3,1.6,0.3h13.4v3.8
			H407.7z"/>
		<path d="M451.4,291.6h-4.7v-11h-13v11h-4.7v-25h4.7v10.3h13v-10.3h4.7V291.6z"/>
		<path d="M464.7,291.6v-21.3h-9.8v-3.8h24.3v3.8h-9.8v21.3H464.7z"/>
		<path d="M486.1,269.1c0.9-2.1,1.9-2.8,4.1-2.8c2.1,0,3.2,0.7,4.1,2.8l9.4,22.5h-5l-2.6-6.3h-12l-2.5,6.3h-5L486.1,269.1z
			 M485.4,281.9h9.6l-4.1-10.2c-0.1-0.4-0.4-1-0.7-1c-0.3,0-0.6,0.7-0.7,1L485.4,281.9z"/>
		<path d="M514.2,268.7c0.5-1.1,1.2-2.4,3.8-2.4c2.6,0,3.3,1.2,3.8,2.4l9.6,22.9h-5l-7.9-20c-0.1-0.3-0.2-0.7-0.6-0.7
			c-0.4,0-0.5,0.4-0.6,0.7l-7.9,20h-5L514.2,268.7z"/>
		<path d="M548.5,291.6c-1,0-2.1,0-2.9-0.7c-1-0.8-1.1-2-1.1-2.9v-21.4h4.7v19.3c0,0.5-0.1,1.2,0.2,1.6c0.3,0.4,1,0.4,1.4,0.4H562
			v-21.3h4.7v21.3h3.4v3.8H548.5z"/>
		<path d="M577.5,291.6c-1.1,0-2,0-2.9-0.8c-0.9-0.8-0.9-2-0.9-2.9v-17.7c0-1,0.3-2,0.9-2.6c0.8-0.9,2-1,3-1h16v3.8h-13.5
			c-0.4,0-0.9,0-1.3,0.4c-0.4,0.4-0.4,0.9-0.4,1.2v5h14.8v3.8h-14.8v5.9c0,0.4,0.1,0.8,0.4,1c0.3,0.3,0.9,0.3,1.6,0.3h13.4v3.8
			H577.5z"/>
		<path d="M621.2,291.6h-4.7v-11h-13v11h-4.7v-25h4.7v10.3h13v-10.3h4.7V291.6z"/>
		<path d="M634.6,291.6v-21.3h-9.8v-3.8h24.3v3.8h-9.8v21.3H634.6z"/>
		<path d="M652.7,291.6v-21.3c0-0.9,0-1.9,0.9-2.8c0.8-0.8,2-1,2.8-1h11.9c1.3,0,3.4,0,5,1.5c1.7,1.6,1.9,4.5,1.9,6.6
			c0,2-0.2,5.3-2.2,6.9c-0.9,0.8-2.4,1.2-3.8,1.2h-11.7v8.9H652.7z M666.4,279c1,0,2.3,0,3.1-0.9c0.8-0.9,0.8-2.5,0.8-3.4
			c0-1.1-0.1-2.6-0.9-3.4c-0.8-0.8-2.1-0.9-2.9-0.9h-7.6c-0.3,0-0.8,0-1.1,0.3c-0.3,0.3-0.3,0.8-0.3,1.2v7.1H666.4z"/>
		<path d="M392.9,332.3c-0.9,2.3-1.5,3-3.6,3c-1.9,0-2.7-0.6-3.6-3l-6.4-16.7c-0.1-0.3-0.4-0.8-0.6-0.8c-0.4,0-0.4,0.6-0.4,0.8
			l0.1,19.5h-4.7v-22c0-3.3,3.3-3.3,4-3.3c1.8,0,3.3,0.4,4.4,3.2l6.5,16.7c0.2,0.5,0.5,0.9,0.7,0.9c0.2,0,0.5-0.4,0.7-0.9l6.5-16.7
			c1.1-2.8,2.6-3.2,4.4-3.2c2.3,0,4,1,4,3.3v22h-4.7l0.1-19.5c0-0.7-0.3-0.8-0.4-0.8c-0.3,0-0.5,0.5-0.6,0.8L392.9,332.3z"/>
		<path d="M433.1,312.3c2.5,2.5,2.8,6.9,2.8,10.1c0,2.7-0.1,7.5-2.8,10.1c-2.7,2.6-7.1,2.6-10,2.6c-3,0-7.2,0-10-2.6
			c-2.9-2.8-2.9-7.3-2.9-10.1c0-3.4,0.2-7.6,2.9-10.1c2.8-2.6,6.9-2.6,10-2.6C426,309.7,430.4,309.7,433.1,312.3z M416.7,329.4
			c1.5,1.9,3.5,2.1,6.4,2.1c2.1,0,4.8-0.1,6.4-2.1c0.9-1.2,1.6-3.2,1.6-6.9c0-3.8-0.6-5.7-1.6-6.9c-1.6-2-4.3-2.1-6.4-2.1
			c-2.2,0-4.7,0.1-6.4,2.1c-1,1.3-1.6,3.1-1.6,6.9C415.1,326.1,415.7,328.1,416.7,329.4z"/>
		<path d="M451.1,335c-2.4,0-5.6-0.3-8-2.9c-2.4-2.6-2.5-6.5-2.5-9.2c0-3.6,0.3-7.3,2.4-9.7c2.5-2.9,6.4-3.1,8.2-3.1h10v3.8h-7.8
			c-2.8,0-5.1,0.2-6.6,2.3c-0.8,1.1-1.4,3-1.4,6.7c0,3.8,0.7,5.3,1.2,6.1c1.3,2,3.6,2.4,6.5,2.4h8.5v3.8H451.1z"/>
		<path d="M466.6,310h4.7v25h-4.7V310z M484.6,335l-10.3-9.6c-1.5-1.4-1.7-2.6-1.7-3.2c0-0.5,0.1-1.6,1.4-2.8l9.5-9.4h5.8
			l-10.8,10.3c-0.8,0.8-1.3,1.4-1.3,1.9c0,0.8,0.9,1.6,1.6,2.3l11.8,10.5H484.6z"/>
		<path d="M509.2,310c1.4,0,3.2,0.1,4.5,1.5c1.4,1.4,1.6,3.7,1.6,5.4c0,1.4-0.1,2.8-1.2,4.1c-0.7,0.9-1.4,1.2-2.4,1.3v0.1
			c1.2,0.1,2.1,0.6,2.8,1.3c1.2,1.3,1.2,3.1,1.2,4.5c0,1.6,0,3.6-1.4,5.3c-1.4,1.6-3,1.6-4.6,1.6h-12c-1.3,0-2.4,0.1-3.4-1
			c-0.3-0.3-0.9-1.1-0.9-2.5v-17.9c0-0.9,0.3-1.9,0.8-2.6c0.8-0.9,1.9-1,2.6-1H509.2z M507.3,320.5c0.9,0,1.9,0,2.6-0.9
			c0.2-0.2,0.5-0.8,0.5-2.5c0-0.7,0-1.9-0.8-2.7c-0.7-0.6-1.5-0.6-2.3-0.6h-7.7c-0.4,0-0.8,0-1.1,0.3c-0.3,0.3-0.3,0.8-0.3,1.1v5.4
			H507.3z M498.2,329.4c0,0.8,0.1,1.3,0.3,1.5c0.4,0.4,1.2,0.4,1.5,0.4h7.4c0.8,0,2,0,2.8-0.9c0.5-0.6,0.6-1.8,0.6-2.5
			c0-0.7-0.1-1.9-0.5-2.5c-0.3-0.4-1-1-2.5-1h-9.6V329.4z"/>
		<path d="M527.2,312.5c0.9-2.1,1.9-2.8,4.1-2.8c2.1,0,3.2,0.7,4.1,2.8l9.4,22.5h-5l-2.6-6.3h-12l-2.5,6.3h-5L527.2,312.5z
			 M526.5,325.3h9.6l-4.1-10.2c-0.1-0.4-0.4-1-0.7-1c-0.3,0-0.6,0.7-0.7,1L526.5,325.3z"/>
	</g>
</g>
</svg>
