<svg width="26" height="21" viewBox="0 0 26 21" fill="none" xmlns="http://www.w3.org/2000/svg">
<path d="M25.9452 1.95619L22.0222 19.7205C21.8465 20.3409 21.6123 20.7356 21.261 20.9048C20.9097 21.074 20.4412 21.0176 19.9143 20.7356L13.9419 16.506L11.0142 19.213C10.8386 19.3822 10.6629 19.5514 10.5458 19.6078C10.3702 19.7205 10.0774 19.7769 9.78463 19.7769L10.253 13.9119L21.3195 4.15559C21.4952 4.0428 21.4952 3.93001 21.4366 3.87362C21.3781 3.76083 21.261 3.76083 21.0853 3.76083C20.9097 3.76083 20.734 3.81722 20.5583 3.93001L6.85699 12.2764L0.943161 10.4718C0.299081 10.3026 -0.0522359 10.0206 0.00631685 9.62588C0.0648696 9.23112 0.474739 8.89275 1.23592 8.61077L24.2472 0.0951662C24.8327 -0.0740181 25.3011 -0.0176234 25.6524 0.26435C26.0037 0.602719 26.0623 1.16667 25.9452 1.95619Z" fill="#686868"/>
</svg>
