<svg width="29" height="29" viewBox="0 0 29 29" fill="none" xmlns="http://www.w3.org/2000/svg">
<path fill-rule="evenodd" clip-rule="evenodd" d="M14.7117 0C22.5438 0 28.7883 6.13869 29 13.7591C29 13.865 29 13.9708 28.8942 14.1825C28.8942 21.9088 22.5438 28.2591 14.7117 28.2591C12.1715 28.2591 9.84307 27.6241 7.83212 26.4599L0 29L2.54015 21.4854C1.27007 19.3686 0.529197 16.8285 0.529197 14.1825V13.5474C0.846715 6.03285 7.09124 0 14.7117 0ZM18.8394 15.77C19.1569 15.8758 20.9562 16.7225 21.2737 16.9342C21.5912 17.1459 21.9088 17.2517 22.0146 17.2517C22.1204 17.4634 22.1204 18.0984 21.8029 18.9452C21.5912 19.7919 20.1095 20.5328 19.4745 20.6386C19.3792 20.6545 19.2982 20.6775 19.2173 20.7005C18.7584 20.831 18.2996 20.9614 15.2409 19.7919C12.2117 18.5986 10.1379 15.7334 9.50267 14.8559C9.40547 14.7216 9.34196 14.6338 9.31387 14.6057C9.29085 14.5597 9.23277 14.4786 9.15271 14.3668C8.86471 13.9647 8.29225 13.1653 8.04379 12.1714C7.93795 11.8539 7.83212 11.4306 7.83212 11.0072C7.83212 9.31378 8.67883 8.46706 9.10219 8.0437C9.41971 7.72619 9.84306 7.62035 10.0547 7.62035H10.6898C10.7277 7.62035 10.7655 7.61357 10.804 7.60669C10.9806 7.57509 11.1699 7.54122 11.4307 8.14954C11.632 8.55214 11.9609 9.38013 12.2017 9.98626C12.3407 10.3362 12.4503 10.6122 12.489 10.6897C12.5949 10.9014 12.5949 11.113 12.489 11.3247C12.4486 11.4056 12.4236 11.471 12.4023 11.5269C12.3678 11.6173 12.3428 11.6827 12.2774 11.7481C12.2774 11.801 12.2509 11.8275 12.2245 11.8539C12.198 11.8804 12.1715 11.9068 12.1715 11.9598C12.0657 12.0656 11.9863 12.1714 11.9069 12.2773C11.8276 12.3831 11.7482 12.489 11.6423 12.5948C11.6234 12.6327 11.6011 12.6705 11.5784 12.709C11.4743 12.8856 11.3627 13.075 11.5365 13.3357C11.7482 13.759 12.3832 14.8174 13.4416 15.77C14.5584 16.7149 15.466 17.1021 15.9946 17.3276C16.1173 17.3799 16.2195 17.4235 16.2993 17.4634C16.6168 17.5693 16.8285 17.5693 17.0401 17.3576C17.0979 17.2421 17.3445 16.9377 17.5912 16.6333C17.7968 16.3797 18.0023 16.126 18.0985 15.9817C18.2967 15.5853 18.4949 15.6528 18.7799 15.7499C18.7993 15.7565 18.8192 15.7632 18.8394 15.77Z" fill="#686868"/>
</svg>
