<svg width="34" height="19" viewBox="0 0 34 19" fill="none" xmlns="http://www.w3.org/2000/svg">
<path d="M0.657053 1.11966C2.21036 1.11966 5.44642 1.11966 6.54668 1.11966C6.80557 1.11966 6.99974 1.2491 7.06447 1.44327C8.42361 4.42044 10.1063 7.07402 12.048 9.40398C12.2421 9.66287 12.6305 9.66286 12.7599 9.33926C13.4071 7.85067 14.5074 4.16156 12.3069 1.50799C12.1127 1.24911 12.1774 0.925497 12.501 0.796055C14.7663 -0.174763 16.9668 -0.304194 19.1026 0.666624C19.5556 0.860788 19.8793 1.31383 19.8793 1.8316L20.397 9.40398C20.397 9.72759 20.7206 9.98647 21.0442 9.92175C23.5036 9.40398 24.9922 5.71487 26.4161 1.8316C26.6103 1.37855 27.0633 1.05494 27.5811 1.05494H33.0176C33.4707 1.05494 33.7943 1.44327 33.7296 1.89632C33.2118 4.61461 30.4288 8.17427 29.0049 9.92175C28.4872 10.5042 28.4872 11.3456 29.0049 11.9928L33.859 17.8177C34.1826 18.2061 33.9237 18.8533 33.3412 18.8533H27.1927C26.675 18.8533 26.2219 18.6591 25.8336 18.2708L21.4973 14.7111C21.3031 14.4522 20.8501 14.3875 20.6559 14.6464C20.1381 15.2936 20.1381 16.0703 19.8793 17.9472C19.8145 18.5297 19.2968 18.918 18.7143 18.918H14.5074C13.9249 18.918 13.3424 18.7885 12.7599 18.5297C10.3652 17.3647 3.69895 13.2873 0.00984167 1.96105C-0.0548795 1.508 0.204005 1.11966 0.657053 1.11966Z" fill="#686868"/>
</svg>
